<?xml version="1.0" encoding="UTF-8"?>
<svg width="122px" height="34px" viewBox="0 0 122 34" version="1.1" xmlns="http://www.w3.org/2000/svg" xmlns:xlink="http://www.w3.org/1999/xlink">
    <!-- Generator: Sketch 46.2 (44496) - http://www.bohemiancoding.com/sketch -->
    <title>Group</title>
    <desc>Created with Sketch.</desc>
    <defs></defs>
    <g id="Page-1" stroke="none" stroke-width="1" fill="none" fill-rule="evenodd">
        <g id="Home-State" transform="translate(-89.000000, -26.000000)">
            <g id="Group" transform="translate(89.000000, 26.000000)">
                <rect id="Rectangle" fill="#1F233E" x="0" y="0" width="64" height="34"></rect>
                <path d="M27.38,13 L24.2,23 L21.02,23 L18.84,15.94 L16.74,23 L13.58,23 L10.4,13 L13.3,13 L15.3,20.8 L17.54,13 L20.24,13 L22.48,20.8 L24.48,13 L27.38,13 Z M34.3149999,12.8 C35.9283413,12.8 37.1849954,13.2599954 38.0849999,14.18 C38.9850044,15.1000046 39.4349999,16.3733252 39.4349999,18 C39.4349999,19.6266748 38.9850044,20.8999954 38.0849999,21.82 C37.1849954,22.7400046 35.9283413,23.2 34.3149999,23.2 C32.7016585,23.2 31.4450044,22.7400046 30.5449999,21.82 C29.6449954,20.8999954 29.1949999,19.6266748 29.1949999,18 C29.1949999,16.3733252 29.6449954,15.1000046 30.5449999,14.18 C31.4450044,13.2599954 32.7016585,12.8 34.3149999,12.8 Z M34.3149999,14.84 C33.5416627,14.84 32.9516686,15.1033307 32.5449999,15.63 C32.1383312,16.1566693 31.9349999,16.9466614 31.9349999,18 C31.9349999,19.0533386 32.1383312,19.8433307 32.5449999,20.37 C32.9516686,20.8966693 33.5416627,21.16 34.3149999,21.16 C35.0883371,21.16 35.6783312,20.8966693 36.0849999,20.37 C36.4916686,19.8433307 36.6949999,19.0533386 36.6949999,18 C36.6949999,16.9466614 36.4916686,16.1566693 36.0849999,15.63 C35.6783312,15.1033307 35.0883371,14.84 34.3149999,14.84 Z M48.2099999,12.8 C48.6766689,12.8 49.0366653,12.8733326 49.2899999,13.02 L48.9499999,15.42 C48.6433317,15.219999 48.2233359,15.12 47.6899999,15.12 C47.0366633,15.12 46.4733356,15.3566643 45.9999999,15.83 C45.5266642,16.3033357 45.2899999,16.9666624 45.2899999,17.82 L45.2899999,23 L42.5499999,23 L42.5499999,13 L44.9299999,13 L45.1099999,14.96 C45.6566693,13.5199928 46.6899923,12.8 48.2099999,12.8 Z M61.2249998,8.62 L61.2249998,23 L58.7849998,23 L58.6649998,21.14 C58.371665,21.7666698 57.9350027,22.2666648 57.3549998,22.64 C56.7749969,23.0133352 56.1116702,23.2 55.3649998,23.2 C54.0316598,23.2 52.9850036,22.7433379 52.2249998,21.83 C51.464996,20.9166621 51.0849998,19.6466748 51.0849998,18.02 C51.0849998,16.3799918 51.464996,15.1000046 52.2249998,14.18 C52.9850036,13.2599954 54.0316598,12.8 55.3649998,12.8 C56.0850034,12.8 56.7116638,12.9633317 57.2449998,13.29 C57.7783358,13.6166683 58.191665,14.0666638 58.4849998,14.64 L58.4849998,8.62 L61.2249998,8.62 Z M56.1649998,21.1 C56.8850034,21.1 57.4516644,20.8400026 57.8649998,20.32 C58.2783352,19.7999974 58.4849998,19.0600048 58.4849998,18.1 L58.4849998,17.9 C58.4849998,16.9533286 58.2783352,16.2166693 57.8649998,15.69 C57.4516644,15.1633307 56.8850034,14.9 56.1649998,14.9 C55.4316628,14.9 54.8583352,15.166664 54.4449998,15.7 C54.0316644,16.233336 53.8249998,16.999995 53.8249998,18 C53.8249998,19.000005 54.0316644,19.766664 54.4449998,20.3 C54.8583352,20.833336 55.4316628,21.1 56.1649998,21.1 Z M68.7599997,23.2 C66.5333219,23.2 64.9866707,22.5600064 64.1199997,21.28 L65.7199997,19.64 C65.9866677,20.2133362 66.3699972,20.6166655 66.8699997,20.85 C67.3700022,21.0833345 67.9866627,21.2 68.7199997,21.2 C69.3066693,21.2 69.7599981,21.1200008 70.0799997,20.96 C70.4000013,20.7999992 70.5599997,20.5800014 70.5599997,20.3 C70.5599997,20.0733322 70.4100012,19.8800008 70.1099997,19.72 C69.8099982,19.5599992 69.2933367,19.4066674 68.5599997,19.26 C67.0266587,18.9533318 65.9500028,18.5500025 65.3299997,18.05 C64.7099966,17.5499975 64.3999997,16.8733376 64.3999997,16.02 C64.3999997,15.4599972 64.5733313,14.9333358 64.9199997,14.44 C65.2666681,13.9466642 65.7799963,13.5500015 66.4599997,13.25 C67.1400031,12.9499985 67.9533283,12.8 68.8999997,12.8 C70.0200053,12.8 70.9266629,12.9699983 71.6199997,13.31 C72.3133365,13.6500017 72.8933307,14.186663 73.3599997,14.92 L71.6599997,16.36 C71.3666649,15.826664 71.0033352,15.4333346 70.5699997,15.18 C70.1366642,14.9266654 69.5933363,14.8 68.9399997,14.8 C68.3933303,14.8 67.956668,14.8933324 67.6299997,15.08 C67.3033314,15.2666676 67.1399997,15.493332 67.1399997,15.76 C67.1399997,16.0400014 67.2999981,16.2733324 67.6199997,16.46 C67.9400013,16.6466676 68.5066623,16.8199992 69.3199997,16.98 C70.7733403,17.2733348 71.80333,17.6566643 72.4099997,18.13 C73.0166694,18.6033357 73.3199997,19.2599958 73.3199997,20.1 C73.3199997,21.033338 72.923337,21.7833305 72.1299997,22.35 C71.3366624,22.9166695 70.2133403,23.2 68.7599997,23.2 Z M88.7749997,12.8 C89.8016715,12.8 90.651663,13.1133302 91.3249997,13.74 C91.9983364,14.3666698 92.3349997,15.2666608 92.3349997,16.44 L92.3349997,23 L89.5949997,23 L89.5949997,16.98 C89.5949997,16.2866632 89.4416679,15.7766683 89.1349997,15.45 C88.8283315,15.1233317 88.4083357,14.96 87.8749997,14.96 C87.2349965,14.96 86.7083351,15.193331 86.2949997,15.66 C85.8816643,16.126669 85.6749997,16.7799958 85.6749997,17.62 L85.6749997,23 L82.9349997,23 L82.9349997,16.98 C82.9349997,16.2866632 82.7816679,15.7766683 82.4749997,15.45 C82.1683315,15.1233317 81.7416691,14.96 81.1949997,14.96 C80.5949967,14.96 80.0783352,15.1899977 79.6449997,15.65 C79.2116642,16.1100023 78.9949997,16.7933288 78.9949997,17.7 L78.9949997,23 L76.2549997,23 L76.2549997,13 L78.7149997,13 L78.7949997,14.78 C79.1283347,14.1266634 79.5849968,13.633335 80.1649997,13.3 C80.7450026,12.966665 81.3949961,12.8 82.1149997,12.8 C82.8616701,12.8 83.5249968,12.9733316 84.1049997,13.32 C84.6850026,13.6666684 85.1083317,14.1666634 85.3749997,14.82 C85.6950013,14.1666634 86.1616633,13.6666684 86.7749997,13.32 C87.3883361,12.9733316 88.0549961,12.8 88.7749997,12.8 Z M97.2899996,11.56 C96.1566606,11.56 95.5899996,11.0733382 95.5899996,10.1 C95.5899996,9.1133284 96.1566606,8.62 97.2899996,8.62 C98.4233386,8.62 98.9899996,9.1133284 98.9899996,10.1 C98.9899996,11.0733382 98.4233386,11.56 97.2899996,11.56 Z M98.6499996,23 L95.9099996,23 L95.9099996,13 L98.6499996,13 L98.6499996,23 Z M109.165,22.38 C108.844998,22.6333346 108.441669,22.8333326 107.955,22.98 C107.46833,23.1266674 106.958336,23.2 106.425,23.2 C104.198322,23.2 103.085,22.1933434 103.085,20.18 L103.085,15.04 L101.265,15.04 L101.265,13 L103.085,13 L103.085,10.7 L105.825,9.94 L105.825,13 L109.065,13 L109.065,15.04 L105.825,15.04 L105.825,19.74 C105.825,20.6600046 106.284995,21.12 107.205,21.12 C107.791669,21.12 108.304997,20.9333352 108.745,20.56 L109.165,22.38 Z M117.759999,12.8 C118.840005,12.8 119.709996,13.1133302 120.369999,13.74 C121.030003,14.3666698 121.359999,15.2666608 121.359999,16.44 L121.359999,23 L118.619999,23 L118.619999,17.24 C118.619999,15.7199924 118.026672,14.96 116.839999,14.96 C116.199996,14.96 115.656668,15.1866644 115.209999,15.64 C114.763331,16.0933356 114.539999,16.786662 114.539999,17.72 L114.539999,23 L111.799999,23 L111.799999,8.62 L114.539999,8.62 L114.539999,14.7 C114.846668,14.0599968 115.276663,13.5833349 115.829999,13.27 C116.383336,12.9566651 117.026662,12.8 117.759999,12.8 Z" id="wordsmith" fill="#FFFFFF"></path>
            </g>
        </g>
    </g>
</svg>